<?xml version="1.0" standalone="no"?>
<!DOCTYPE svg PUBLIC "-//W3C//DTD SVG 20010904//EN"
 "http://www.w3.org/TR/2001/REC-SVG-20010904/DTD/svg10.dtd">
<svg version="1.0" xmlns="http://www.w3.org/2000/svg"
 width="378.000000pt" height="380.000000pt" viewBox="0 0 378.000000 380.000000"
 preserveAspectRatio="xMidYMid meet">

<g transform="translate(0.000000,380.000000) scale(0.100000,-0.100000)"
fill="#000000" stroke="none">
<path d="M0 1900 l0 -1900 1890 0 1890 0 0 1900 0 1900 -1890 0 -1890 0 0
-1900z m1210 1503 c64 -31 100 -70 100 -108 0 -32 -34 -74 -81 -99 -39 -22
-49 -24 -58 -12 -9 11 -5 16 19 26 31 13 80 63 80 82 0 24 -69 77 -121 92 -70
21 -217 22 -286 1 -179 -53 -136 -178 70 -204 28 -3 52 -12 55 -18 6 -20 -66
-16 -142 7 -179 56 -180 192 -4 250 52 16 85 19 183 17 113 -2 125 -4 185 -34z
m-136 -95 c9 -12 16 -34 16 -48 0 -30 108 -143 153 -159 16 -6 102 -11 192
-11 135 0 174 3 227 20 76 24 97 25 126 4 27 -19 28 -45 2 -69 -16 -14 -30
-17 -69 -12 -70 8 -247 -45 -235 -71 28 -65 52 -259 35 -290 -10 -20 -186
-162 -200 -162 -19 1 -29 23 -39 90 -7 41 -17 96 -24 121 l-11 46 -51 -2 c-28
-2 -67 -3 -86 -4 -30 -1 -50 -14 -123 -82 -115 -107 -120 -105 -115 49 2 64 8
126 13 136 8 18 5 19 -76 13 -46 -4 -102 -14 -124 -22 -53 -19 -69 -18 -96 4
-20 16 -22 22 -12 44 10 22 20 26 70 31 64 7 367 101 382 120 6 7 4 37 -6 84
-13 59 -22 77 -45 93 -19 14 -28 29 -28 48 0 38 17 51 66 51 33 0 47 -5 58
-22z m1056 -53 c100 -20 218 -59 315 -106 87 -41 265 -154 333 -212 40 -34
144 -149 139 -154 -9 -8 -166 52 -187 71 -14 13 -47 36 -75 52 l-49 29 27 -36
c15 -20 27 -39 27 -43 0 -5 -28 -5 -62 -1 -61 7 -66 10 -133 75 l-71 68 -84 7
c-47 3 -109 5 -138 3 l-52 -3 56 -75 57 -75 -44 -7 c-24 -4 -56 -9 -71 -12
-24 -5 -31 0 -54 42 -15 26 -38 61 -50 79 l-24 31 36 36 c33 33 36 41 31 76
l-5 39 67 3 66 3 -66 32 c-61 30 -176 58 -324 79 -40 6 -46 9 -30 16 29 12
277 1 365 -17z m-300 -15 c123 -20 210 -81 210 -149 0 -35 -68 -95 -132 -117
-66 -24 -262 -27 -322 -5 -53 18 -26 34 35 19 58 -13 202 -4 259 16 54 20 100
62 100 91 0 50 -99 102 -213 111 -122 11 -258 -25 -289 -76 -13 -20 -38 -28
-38 -11 0 19 44 63 82 82 47 24 145 47 203 48 22 1 69 -4 105 -9z m-1061 -223
c62 -18 70 -43 10 -31 -24 4 -91 8 -149 8 -90 1 -111 -3 -147 -22 -81 -43 -79
-96 5 -135 39 -18 65 -22 152 -22 89 0 112 3 151 23 53 26 88 30 70 8 -22 -26
-110 -56 -183 -62 -151 -13 -298 47 -298 121 0 100 216 163 389 112z m793 -56
c13 -5 32 -12 43 -16 17 -6 15 -9 -15 -20 -78 -28 -77 -28 -83 2 -8 44 7 53
55 34z m287 -239 c18 -28 31 -62 31 -80 l0 -31 56 17 c47 13 68 14 122 4 84
-14 111 -40 169 -160 55 -116 77 -132 178 -132 39 0 90 7 115 14 44 14 42 14
-50 9 -125 -7 -159 6 -197 77 -92 170 -120 194 -242 208 l-64 7 27 32 c36 43
72 47 302 34 205 -11 271 -25 344 -71 101 -65 134 -124 123 -222 -5 -42 -9
-49 -32 -54 -42 -9 -47 -12 -23 -13 13 -1 32 3 42 9 17 9 19 4 26 -58 4 -37 8
-101 7 -142 0 -63 2 -70 10 -45 10 29 -3 206 -19 263 -6 20 -3 22 35 22 57 0
84 -15 72 -39 -7 -13 -4 -25 14 -47 l24 -29 1 28 c0 35 29 47 118 47 69 0 112
-17 112 -44 0 -7 8 -24 19 -37 10 -13 21 -42 25 -64 5 -22 12 -43 18 -46 13
-8 11 -258 -2 -330 -6 -30 -17 -77 -25 -106 l-15 -51 -65 -7 c-88 -10 -125 -1
-156 36 l-26 32 -12 -32 -13 -31 -103 0 c-87 0 -106 3 -128 20 -35 28 -65 94
-73 160 -6 54 -5 56 21 68 15 7 29 11 32 9 2 -2 8 -32 14 -66 6 -34 19 -72 29
-84 l19 -22 14 35 c19 44 34 200 20 200 -6 0 -59 -23 -118 -51 l-108 -52 -143
6 c-79 3 -146 2 -149 -2 -8 -14 15 -79 29 -84 18 -7 32 9 41 46 l7 28 124 -2
124 -2 -6 -36 c-9 -50 -30 -99 -60 -138 l-25 -33 -92 0 c-101 0 -133 12 -168
66 -13 20 -19 24 -23 14 -2 -8 -8 -28 -13 -45 -9 -28 -14 -31 -75 -39 -90 -12
-133 -3 -155 34 -22 37 -26 37 -40 0 l-11 -30 -107 0 -108 0 -32 34 c-17 19
-38 56 -45 82 l-14 48 -12 -49 c-7 -27 -21 -60 -32 -74 -17 -24 -26 -26 -102
-29 -63 -2 -88 1 -107 13 -33 22 -70 106 -78 178 -5 38 -12 57 -21 57 -9 0
-14 -11 -14 -30 0 -16 -4 -30 -9 -30 -4 0 -6 -31 -3 -70 l5 -70 -51 0 c-49 0
-50 0 -56 35 -8 43 0 75 20 75 19 0 18 26 -1 34 -8 3 -15 17 -15 31 0 24 -2
25 -60 25 -57 0 -60 -1 -60 -25 0 -14 -6 -25 -13 -25 -11 0 -13 -16 -9 -75 l5
-75 -46 0 c-45 0 -46 1 -53 35 -8 44 2 85 21 85 8 0 15 7 15 15 0 8 -7 15 -15
15 -9 0 -15 9 -15 25 0 24 -2 25 -65 25 -63 0 -65 -1 -65 -25 0 -14 -4 -25 -8
-25 -5 0 -7 -34 -4 -76 l5 -75 -49 3 -49 3 -3 53 c-2 40 1 54 12 58 18 7 22
34 6 34 -5 0 -10 11 -10 25 0 18 -5 25 -19 25 -23 0 -34 28 -25 64 l6 26 317
2 c313 2 314 2 121 8 -107 4 -250 8 -318 9 l-123 1 3 33 3 32 312 3 312 2 5
33 c3 17 10 72 16 121 12 92 27 134 63 174 18 19 30 22 102 22 66 0 83 -3 95
-18 26 -32 40 -61 40 -82 0 -11 4 -20 9 -20 9 0 12 -12 26 -95 l7 -40 20 52
c28 76 54 93 145 93 64 0 77 -3 97 -23 22 -22 23 -22 38 -3 12 16 30 20 104
24 80 4 92 2 117 -18 15 -12 26 -25 23 -27 -3 -3 6 -22 19 -42 14 -19 25 -50
25 -67 0 -18 5 -34 11 -36 8 -3 12 -43 13 -121 1 -133 2 -135 14 -22 10 93 -5
182 -43 262 -40 80 -49 84 -232 82 -138 -1 -167 1 -228 20 -62 20 -78 31 -139
94 -38 40 -59 59 -47 42 12 -16 36 -49 52 -73 19 -27 46 -51 72 -62 l41 -19
-27 -10 c-15 -6 -36 -25 -47 -43 -17 -28 -20 -30 -25 -12 -3 10 -13 32 -21 47
-7 16 -14 34 -14 41 0 18 -58 84 -80 91 -29 9 -28 65 1 65 11 0 17 5 14 10 -3
6 -2 10 3 10 5 0 20 11 33 24 13 13 48 29 77 36 47 11 64 10 132 -6 l79 -19 4
-90 c3 -71 4 -65 3 26 -1 82 -5 121 -15 132 -9 11 -11 28 -7 52 4 19 8 35 10
35 2 0 18 -22 35 -48z m-709 9 c0 -25 43 -59 86 -67 20 -4 34 -12 34 -20 0
-11 -7 -13 -27 -8 -76 18 -132 65 -119 99 8 21 26 19 26 -4z m-290 -71 c0 -16
5 -40 11 -53 9 -19 5 -40 -21 -113 -28 -81 -34 -91 -73 -114 -57 -34 -57 -34
-57 -17 0 45 114 327 131 327 5 0 9 -13 9 -30z m1512 -1065 l-3 -30 155 -1
155 -1 12 29 c11 27 15 28 75 28 35 0 64 -4 64 -9 0 -5 -7 -24 -15 -44 l-15
-35 63 -20 62 -19 29 60 29 59 51 -7 c28 -3 52 -8 54 -9 1 -2 -13 -39 -33 -82
-45 -99 -149 -256 -222 -334 -195 -211 -532 -359 -858 -377 -131 -7 -248 7
-401 47 -230 61 -392 151 -542 302 -80 79 -222 274 -222 303 0 12 78 43 84 33
1 -2 24 -39 51 -83 51 -82 183 -228 268 -296 l48 -38 69 70 69 70 -58 78 c-59
79 -151 232 -151 250 0 9 108 37 115 29 2 -1 21 -37 43 -79 38 -73 131 -219
139 -219 2 0 20 11 41 24 156 98 443 207 625 236 l77 13 0 38 c0 44 8 48 90
46 55 -2 55 -2 52 -32z m-1174 -837 c-3 -31 -6 -33 -45 -36 l-43 -3 0 -125 0
-124 -35 0 -35 0 0 124 0 125 -42 3 c-40 3 -43 5 -46 36 l-3 32 126 0 126 0
-3 -32z m181 -62 c35 -19 51 -55 51 -115 0 -41 -5 -54 -30 -81 -28 -30 -34
-32 -80 -28 l-50 5 0 -48 0 -49 -35 0 -34 0 -3 160 -3 160 33 0 c17 0 32 -5
32 -10 0 -6 12 -4 28 4 34 19 56 20 91 2z m268 -21 c20 -23 23 -37 23 -116 l0
-89 -35 0 c-21 0 -35 5 -35 12 0 9 -3 9 -12 0 -21 -21 -85 -15 -108 10 -44 48
-13 109 66 130 59 16 56 32 -6 26 -43 -4 -50 -2 -56 14 -11 34 22 49 96 43 33
-2 50 -10 67 -30z m519 22 c3 -3 2 -16 -2 -31 -5 -21 -10 -25 -30 -20 -34 9
-74 -20 -74 -53 0 -37 27 -63 66 -63 24 0 34 -5 39 -20 10 -32 -3 -40 -60 -40
-46 0 -60 5 -86 28 -62 55 -44 163 34 198 28 13 101 14 113 1z m491 -22 c17
-19 23 -39 23 -71 l0 -44 -72 0 c-67 0 -71 -1 -56 -17 11 -10 34 -17 65 -17
38 -1 48 -5 51 -20 2 -10 -2 -22 -10 -27 -18 -12 -101 -11 -132 1 -82 31 -79
173 5 218 37 20 100 8 126 -23z m-857 -15 c0 -38 2 -40 30 -40 28 0 30 2 30
40 l0 40 40 0 40 0 0 -115 0 -115 -40 0 -40 0 0 45 c0 43 -1 45 -30 45 -29 0
-30 -2 -30 -45 l0 -45 -40 0 -40 0 0 115 0 115 40 0 40 0 0 -40z m480 0 c0
-39 1 -40 35 -40 34 0 35 1 35 40 0 39 1 40 35 40 l35 0 0 -115 0 -115 -35 0
c-35 0 -35 0 -35 45 0 45 0 45 -35 45 -35 0 -35 0 -35 -45 0 -45 0 -45 -35
-45 l-35 0 0 115 0 115 35 0 c34 0 35 -1 35 -40z m620 10 c0 -27 -3 -30 -30
-30 l-30 0 0 -85 0 -85 -40 0 -40 0 0 85 0 85 -30 0 c-27 0 -30 3 -30 30 l0
30 100 0 100 0 0 -30z"/>
<path d="M1198 2929 c-24 -13 -23 -54 2 -79 25 -25 52 -26 73 -2 22 25 21 48
-3 72 -22 22 -46 25 -72 9z"/>
<path d="M1341 2926 c-43 -24 -33 -114 18 -160 30 -27 27 -64 -5 -76 -17 -7
-31 -7 -38 -1 -8 7 -9 -7 -2 -55 6 -35 13 -64 17 -64 3 0 41 28 84 61 l78 61
-6 52 c-10 83 -26 124 -64 161 -40 39 -47 40 -82 21z m102 -115 c15 -6 27 -17
27 -26 0 -14 -3 -14 -29 -1 -16 9 -47 18 -70 22 -56 9 -54 28 2 21 24 -3 55
-11 70 -16z m-11 -151 c-23 -22 -42 -30 -68 -30 -49 0 -39 23 14 32 23 4 50
12 59 17 31 18 29 11 -5 -19z"/>
<path d="M940 2845 c-20 -21 -25 -39 -28 -97 l-4 -71 28 21 c16 11 42 34 58
51 28 29 28 32 13 49 -9 10 -17 23 -17 28 0 6 -6 18 -13 28 -12 16 -14 15 -37
-9z"/>
<path d="M1284 2798 l-19 -23 23 19 c21 18 27 26 19 26 -2 0 -12 -10 -23 -22z"/>
<path d="M2286 2573 c48 -49 93 -101 99 -118 22 -62 126 -99 133 -47 3 21 8
22 93 22 83 0 89 -1 89 -21 0 -15 5 -20 23 -17 18 2 23 10 25 42 2 24 0 36 -7
32 -27 -17 -121 -25 -189 -17 -98 12 -163 46 -261 136 -45 41 -84 75 -87 75
-4 0 33 -39 82 -87z"/>
<path d="M2643 2373 c9 -2 23 -2 30 0 6 3 -1 5 -18 5 -16 0 -22 -2 -12 -5z"/>
<path d="M1299 2278 c-20 -47 -18 -367 2 -423 34 -96 67 -19 68 160 1 123 -10
219 -30 268 -15 35 -24 34 -40 -5z"/>
<path d="M2920 2260 c0 -6 5 -10 10 -10 6 0 10 -15 10 -34 0 -19 4 -37 9 -40
11 -7 20 -257 11 -305 -4 -21 -4 -46 0 -56 6 -18 8 -18 21 5 30 53 12 390 -21
390 -6 0 -10 11 -10 24 0 13 -7 26 -15 30 -8 3 -15 1 -15 -4z"/>
<path d="M1926 2204 c-4 -9 -1 -22 5 -30 6 -8 11 -80 12 -194 2 -146 4 -177
14 -163 21 28 26 79 21 207 -3 78 -11 134 -21 159 -18 41 -22 44 -31 21z"/>
<path d="M1655 2186 c-26 -40 -38 -156 -26 -262 11 -102 23 -134 50 -134 31 0
41 44 41 181 0 186 -27 274 -65 215z"/>
<path d="M2306 1338 c-41 -152 -82 -249 -151 -354 l-61 -93 40 21 c111 56 251
174 331 278 53 69 146 230 139 241 -3 5 -65 9 -138 9 l-133 0 -27 -102z"/>
<path d="M2170 1423 c-68 -9 -189 -40 -315 -80 -143 -46 -325 -125 -325 -140
0 -16 202 -208 270 -258 92 -67 127 -82 175 -75 39 5 41 8 82 89 51 104 96
236 122 366 11 54 19 99 18 100 -1 0 -13 -1 -27 -2z"/>
<path d="M2707 1359 c-76 -135 -206 -278 -341 -373 -43 -31 -75 -56 -72 -56
25 0 206 98 271 147 83 62 196 176 253 256 l33 46 -53 16 c-28 8 -54 15 -57
15 -3 0 -19 -23 -34 -51z"/>
<path d="M1367 1103 c-37 -27 -67 -51 -67 -54 0 -10 107 -64 190 -97 68 -27
191 -61 280 -77 33 -6 31 -4 -24 30 -76 47 -154 107 -238 184 -36 33 -68 61
-71 61 -2 0 -34 -21 -70 -47z"/>
<path d="M1277 632 c-21 -23 -22 -75 -3 -92 46 -37 96 32 62 85 -20 30 -37 32
-59 7z"/>
<path d="M1545 566 c-18 -13 -16 -46 4 -46 14 0 41 30 41 46 0 18 -21 18 -45
0z"/>
<path d="M2548 649 c-29 -16 -21 -29 17 -29 37 0 43 8 23 28 -14 14 -18 14
-40 1z"/>
</g>
</svg>
